<svg width="32" height="32" viewBox="0 0 32 32" fill="none" xmlns="http://www.w3.org/2000/svg">
<path d="M16 32C24.8365 32 32 24.8365 32 16C32 7.16346 24.8365 0 16 0C7.16346 0 0 7.16346 0 16C0 24.8365 7.16346 32 16 32Z" fill="#34AADF"/>
<path d="M8.16471 15.9768C8.16471 15.9768 14.5978 13.4224 16.8289 12.5229C17.6842 12.1632 20.5847 11.0118 20.5847 11.0118C20.5847 11.0118 21.9234 10.5082 21.8118 11.7314C21.7746 12.2351 21.4771 13.998 21.1797 15.9048C20.7334 18.6032 20.25 21.5533 20.25 21.5533C20.25 21.5533 20.1756 22.3809 19.5435 22.5248C18.9113 22.6687 17.8701 22.0211 17.6842 21.8771C17.5354 21.7692 14.8953 20.1502 13.9285 19.3587C13.6682 19.1428 13.3707 18.7111 13.9656 18.2074C15.3043 17.0202 16.9033 15.5451 17.8701 14.6097C18.3164 14.1779 18.7626 13.1705 16.9033 14.3938C14.2631 16.1567 11.6601 17.8117 11.6601 17.8117C11.6601 17.8117 11.0652 18.1714 9.94961 17.8476C8.83401 17.5239 7.53251 17.0921 7.53251 17.0921C7.53251 17.0921 6.64011 16.5524 8.16471 15.9768Z" fill="white"/>
</svg>
