<svg width="40" height="40" viewBox="0 0 40 40" fill="none" xmlns="http://www.w3.org/2000/svg">
    <path d="M0 20C0 8.95431 8.95431 0 20 0C31.0457 0 40 8.95431 40 20C40 31.0457 31.0457 40 20 40C8.95431 40 0 31.0457 0 20Z" fill="#FF5533"/>
    <path d="M14.9385 17.2065C15.0176 17.1368 15.0572 17.1019 15.0634 17.0677C15.0689 17.038 15.0606 17.0075 15.0409 16.9846C15.0182 16.9583 14.9673 16.9483 14.8654 16.9285C13.6773 16.6973 12.4473 16.5616 11.3683 16.5504C11.3165 16.5498 11.2906 16.5496 11.2706 16.5399C11.2527 16.5313 11.2381 16.5179 11.228 16.5009C11.2166 16.4817 11.2141 16.4561 11.2092 16.4051L10.8091 12.2913C10.8042 12.2403 10.8017 12.2148 10.8093 12.1936C10.816 12.1749 10.8282 12.1587 10.8442 12.1469C10.8623 12.1336 10.8874 12.1287 10.9377 12.119C16.9647 10.9529 22.9636 10.8931 29.0809 12.1213C29.131 12.1313 29.156 12.1363 29.174 12.1498C29.1899 12.1615 29.2019 12.1779 29.2085 12.1965C29.2161 12.2176 29.2135 12.2431 29.2084 12.2939L28.7933 16.4057C28.7882 16.4565 28.7856 16.482 28.7742 16.5011C28.7641 16.518 28.7495 16.5313 28.7317 16.5399C28.7117 16.5496 28.6858 16.5498 28.6342 16.5504C27.5551 16.5616 26.3249 16.6972 25.1366 16.9285C25.0347 16.9484 24.9838 16.9583 24.9612 16.9846C24.9415 17.0075 24.9332 17.038 24.9386 17.0677C24.9448 17.1019 24.9844 17.1368 25.0636 17.2065C27.9266 19.7306 29.9516 23.056 29.9971 27.7279C29.9976 27.784 29.9979 27.812 29.9871 27.8336C29.9776 27.8525 29.9621 27.8682 29.9433 27.8778C29.9218 27.8888 29.8938 27.8888 29.8378 27.8888H25.7134C25.6574 27.8888 25.6293 27.8888 25.6081 27.8781C25.5893 27.8686 25.5742 27.8538 25.5645 27.8351C25.5535 27.814 25.5531 27.7853 25.5523 27.7279C25.4988 23.8284 23.4961 21.2288 20.0883 19.0034C20.0568 18.9828 20.041 18.9725 20.0239 18.9685C20.009 18.965 19.993 18.965 19.9781 18.9685C19.961 18.9725 19.9453 18.9828 19.9138 19.0034C16.5059 21.2288 14.5032 23.8284 14.4497 27.7279C14.4489 27.7853 14.4486 27.814 14.4375 27.8351C14.4278 27.8538 14.4128 27.8686 14.3939 27.8781C14.3727 27.8888 14.3447 27.8888 14.2886 27.8888H10.1642C10.1082 27.8888 10.0802 27.8888 10.0587 27.8778C10.0399 27.8682 10.0244 27.8525 10.015 27.8336C10.0042 27.812 10.0044 27.784 10.005 27.7279C10.0504 23.056 12.0754 19.7306 14.9385 17.2065Z" fill="white"/>
</svg>
