<svg width="40" height="40" viewBox="0 0 40 40" fill="none" xmlns="http://www.w3.org/2000/svg">
    <path d="M0 20C0 8.95431 8.95431 0 20 0C31.0457 0 40 8.95431 40 20C40 31.0457 31.0457 40 20 40C8.95431 40 0 31.0457 0 20Z" fill="#FD8C00"/>
    <path d="M29.0198 25.2046C29.4793 25.3814 29.6561 26.0699 29.6912 26.3702C29.762 26.9181 29.6034 27.13 29.4266 27.13C29.2498 27.13 29.0022 26.9181 28.7376 26.4943C28.4724 26.0699 28.3664 25.5933 28.5081 25.3457C28.5959 25.1865 28.7897 25.1162 29.0198 25.2046ZM26.3351 27.2009C26.6178 27.2009 26.9357 27.3244 27.2184 27.5714C27.7658 28.031 27.925 28.5608 27.6423 28.9495C27.4831 29.1438 27.2184 29.2674 26.9181 29.2674C26.6178 29.2674 26.2999 29.1614 26.088 28.9671C25.5933 28.5432 25.4522 27.8361 25.7696 27.4479C25.8936 27.2887 26.088 27.2009 26.3351 27.2009ZM20.1531 32.3056C13.4402 32.3056 8 26.8649 8 20.1525C8 13.4402 13.4408 8 20.1525 8C26.8649 8 32.3056 13.4408 32.3056 20.1525C32.3056 22.431 31.6699 24.5689 30.5927 26.3883C30.557 26.441 30.4686 26.4234 30.4511 26.3526C30.0272 23.3676 28.2078 21.7244 25.5582 21.2303C25.3282 21.1946 25.293 21.0535 25.5933 21.0184C26.4059 20.9475 27.5539 20.9651 28.1545 21.0711C28.1896 20.7707 28.2078 20.4529 28.2078 20.135C28.2078 15.7011 24.604 12.0973 20.1701 12.0973C15.7368 12.0973 12.133 15.7011 12.133 20.135C12.133 24.5689 15.7368 28.1726 20.1707 28.1726H20.5413C20.4154 27.4555 20.362 26.7275 20.382 25.9996C20.4002 25.5049 20.5061 25.4341 20.718 25.8228C21.8309 27.7482 23.4209 29.4793 26.5294 30.1683C29.073 30.7338 31.6166 31.3871 34.3546 34.8668C34.6016 35.1671 34.2311 35.485 33.9483 35.238C31.1576 32.7646 28.614 31.9521 26.2999 31.9521C23.7031 31.9702 21.9374 32.3056 20.1531 32.3056Z" fill="white"/>
</svg>
