<svg width="40" height="40" viewBox="0 0 150 150" fill="none" xmlns="http://www.w3.org/2000/svg">
<g clip-path="url(#clip0_2802_47054)">
<path d="M27 41.12L41.532 67.095V82.939L27.017 108.863L27 41.12Z" fill="#5B57A2"/>
<path d="M82.797 57.643L96.414 49.297L124.282 49.271L82.797 74.685V57.643Z" fill="#D90751"/>
<path d="M82.72 40.967L82.797 75.357L68.231 66.407V15L82.721 40.967H82.72Z" fill="#FAB718"/>
<path d="M124.282 49.271L96.413 49.297L82.72 40.967L68.231 15L124.281 49.271H124.282Z" fill="#ED6F26"/>
<path d="M82.797 109.007V92.322L68.231 83.542L68.239 135L82.797 109.007Z" fill="#63B22F"/>
<path d="M96.38 100.737L41.531 67.095L27 41.12L124.223 100.703L96.379 100.737H96.38Z" fill="#1487C9"/>
<path d="M68.24 135L82.796 109.007L96.379 100.737L124.222 100.703L68.24 135Z" fill="#017F36"/>
<path d="M27.017 108.863L68.35 83.543L54.454 75.017L41.532 82.939L27.017 108.863Z" fill="#984995"/>
</g>
<defs>
<clipPath id="clip0_2802_47054">
<rect width="150" height="150" fill="white"/>
</clipPath>
</defs>
</svg>
